<?xml version="1.0" encoding="UTF-8" standalone="no"?>
<svg
   xmlns:dc="http://purl.org/dc/elements/1.1/"
   xmlns:cc="http://creativecommons.org/ns#"
   xmlns:rdf="http://www.w3.org/1999/02/22-rdf-syntax-ns#"
   xmlns:svg="http://www.w3.org/2000/svg"
   xmlns="http://www.w3.org/2000/svg"
   viewBox="0 0 2582.6799 1462.6801"
   height="1462.6801"
   width="2582.6799"
   xml:space="preserve"
   id="svg2"
   version="1.1"><metadata
     id="metadata8"><rdf:RDF><cc:Work
         rdf:about=""><dc:format>image/svg+xml</dc:format><dc:type
           rdf:resource="http://purl.org/dc/dcmitype/StillImage" /></cc:Work></rdf:RDF></metadata><defs
     id="defs6"><clipPath
       id="clipPath18"
       clipPathUnits="userSpaceOnUse"><path
         id="path16"
         d="M 0,1097.008 H 1937.008 V 0 H 0 Z" /></clipPath><clipPath
       id="clipPath34"
       clipPathUnits="userSpaceOnUse"><path
         id="path32"
         d="M 0,1097.008 H 1937.008 V 0 H 0 Z" /></clipPath><clipPath
       id="clipPath50"
       clipPathUnits="userSpaceOnUse"><path
         id="path48"
         d="M 0,1097.008 H 1937.008 V 0 H 0 Z" /></clipPath><clipPath
       id="clipPath66"
       clipPathUnits="userSpaceOnUse"><path
         id="path64"
         d="M 0,1097.008 H 1937.008 V 0 H 0 Z" /></clipPath><clipPath
       id="clipPath82"
       clipPathUnits="userSpaceOnUse"><path
         id="path80"
         d="M 0,1097.008 H 1937.008 V 0 H 0 Z" /></clipPath><clipPath
       id="clipPath98"
       clipPathUnits="userSpaceOnUse"><path
         id="path96"
         d="M 0,1097.008 H 1937.008 V 0 H 0 Z" /></clipPath><clipPath
       id="clipPath114"
       clipPathUnits="userSpaceOnUse"><path
         id="path112"
         d="M 0,1097.008 H 1937.008 V 0 H 0 Z" /></clipPath><clipPath
       id="clipPath130"
       clipPathUnits="userSpaceOnUse"><path
         id="path128"
         d="M 0,1097.008 H 1937.008 V 0 H 0 Z" /></clipPath><clipPath
       id="clipPath146"
       clipPathUnits="userSpaceOnUse"><path
         id="path144"
         d="M 0,1097.008 H 1937.008 V 0 H 0 Z" /></clipPath><clipPath
       id="clipPath162"
       clipPathUnits="userSpaceOnUse"><path
         id="path160"
         d="M 0,1097.008 H 1937.008 V 0 H 0 Z" /></clipPath><clipPath
       id="clipPath178"
       clipPathUnits="userSpaceOnUse"><path
         id="path176"
         d="M 0,1097.008 H 1937.008 V 0 H 0 Z" /></clipPath><clipPath
       id="clipPath194"
       clipPathUnits="userSpaceOnUse"><path
         id="path192"
         d="M 0,1097.008 H 1937.008 V 0 H 0 Z" /></clipPath><clipPath
       id="clipPath210"
       clipPathUnits="userSpaceOnUse"><path
         id="path208"
         d="M 0,1097.008 H 1937.008 V 0 H 0 Z" /></clipPath><clipPath
       id="clipPath226"
       clipPathUnits="userSpaceOnUse"><path
         id="path224"
         d="M 0,1097.008 H 1937.008 V 0 H 0 Z" /></clipPath><clipPath
       id="clipPath242"
       clipPathUnits="userSpaceOnUse"><path
         id="path240"
         d="M 0,1097.008 H 1937.008 V 0 H 0 Z" /></clipPath><clipPath
       id="clipPath258"
       clipPathUnits="userSpaceOnUse"><path
         id="path256"
         d="M 0,1097.008 H 1937.008 V 0 H 0 Z" /></clipPath><clipPath
       id="clipPath274"
       clipPathUnits="userSpaceOnUse"><path
         id="path272"
         d="M 0,1097.008 H 1937.008 V 0 H 0 Z" /></clipPath><clipPath
       id="clipPath290"
       clipPathUnits="userSpaceOnUse"><path
         id="path288"
         d="M 0,1097.008 H 1937.008 V 0 H 0 Z" /></clipPath><clipPath
       id="clipPath306"
       clipPathUnits="userSpaceOnUse"><path
         id="path304"
         d="M 0,1097.008 H 1937.008 V 0 H 0 Z" /></clipPath><clipPath
       id="clipPath322"
       clipPathUnits="userSpaceOnUse"><path
         id="path320"
         d="M 0,1097.008 H 1937.008 V 0 H 0 Z" /></clipPath><clipPath
       id="clipPath338"
       clipPathUnits="userSpaceOnUse"><path
         id="path336"
         d="M 0,1097.008 H 1937.008 V 0 H 0 Z" /></clipPath><clipPath
       id="clipPath354"
       clipPathUnits="userSpaceOnUse"><path
         id="path352"
         d="M 0,1097.008 H 1937.008 V 0 H 0 Z" /></clipPath><clipPath
       id="clipPath370"
       clipPathUnits="userSpaceOnUse"><path
         id="path368"
         d="M 0,1097.008 H 1937.008 V 0 H 0 Z" /></clipPath></defs><g
     transform="matrix(1.3333333,0,0,-1.3333333,0,1462.68)"
     id="g10"><g
       id="g12"><g
         clip-path="url(#clipPath18)"
         id="g14"><g
           transform="translate(211.3715,541.3365)"
           id="g20"><path
             id="path22"
             style="fill:#4dd5bd;fill-opacity:1;fill-rule:nonzero;stroke:none"
             d="m 0,0 c -3.046,0 -5.539,-2.787 -5.547,-6.197 v -15.095 c 0,-0.582 0.058,-1.129 0.16,-1.65 0.591,-2.716 2.779,-4.751 5.379,-4.756 0.03,0.001 0.058,0.004 0.088,0.005 3.014,0.049 5.467,2.821 5.467,6.206 V -6.212 C 5.547,-2.795 3.05,0 0,0" /></g><g
           transform="translate(262.8251,581.4212)"
           id="g24"><path
             id="path26"
             style="fill:#161f64;fill-opacity:1;fill-rule:nonzero;stroke:none"
             d="M 0,0 C -0.998,1.059 -2.296,1.589 -3.893,1.589 -5.557,1.589 -6.887,1.059 -7.885,0 -8.883,-1.06 -9.382,-2.383 -9.382,-3.973 v -42.743 l -36.333,46.119 c -0.465,0.729 -1.196,1.275 -2.195,1.639 -0.998,0.364 -1.964,0.547 -2.894,0.547 -1.731,0 -3.179,-0.58 -4.343,-1.739 -1.164,-1.159 -1.746,-2.599 -1.746,-4.32 v -32.872 c 1.568,1.088 3.434,1.727 5.44,1.727 2.047,0 3.952,-0.662 5.54,-1.791 v 17.44 l 36.631,-46.287 c 0.464,-0.531 1.147,-0.944 2.045,-1.243 0.898,-0.297 1.78,-0.447 2.646,-0.447 1.73,0 3.177,0.58 4.341,1.738 1.164,1.159 1.747,2.6 1.747,4.323 V -3.973 C 1.497,-2.383 0.998,-1.06 0,0" /></g></g></g><g
       id="g28"><g
         clip-path="url(#clipPath34)"
         id="g30"><g
           transform="translate(318.8417,583.0163)"
           id="g36"><path
             id="path38"
             style="fill:#4dd5bd;fill-opacity:1;fill-rule:nonzero;stroke:none"
             d="m 0,0 h -15.096 c -0.582,0 -1.13,-0.059 -1.65,-0.166 -2.715,-0.608 -4.75,-2.866 -4.756,-5.546 0.002,-0.031 0.004,-0.059 0.006,-0.09 0.048,-3.109 2.821,-5.639 6.206,-5.639 h 15.275 c 3.416,0 6.212,2.573 6.212,5.721 C 6.197,-2.578 3.41,-0.008 0,0" /></g><g
           transform="translate(318.5996,524.8955)"
           id="g40"><path
             id="path42"
             style="fill:#161f64;fill-opacity:1;fill-rule:nonzero;stroke:none"
             d="m 0,0 h -27.049 v 18.377 h 22.558 c 1.729,0 3.176,0.512 4.341,1.539 1.164,1.026 1.747,2.367 1.747,4.023 0,1.72 -0.583,3.129 -1.747,4.221 -1.165,1.092 -2.612,1.639 -4.341,1.639 h -22.558 v 16.886 h 3.178 c -1.128,1.573 -1.809,3.456 -1.85,5.477 -0.004,0.064 -0.006,0.129 -0.007,0.195 v 0.03 0.029 c 0.004,2.096 0.67,4.059 1.827,5.692 h -9.536 c -1.731,0 -3.179,-0.579 -4.342,-1.738 -1.165,-1.16 -1.747,-2.599 -1.747,-4.321 V -5.364 c 0,-1.723 0.582,-3.162 1.747,-4.321 1.163,-1.16 2.611,-1.738 4.342,-1.738 H 0 c 1.73,0 3.177,0.53 4.341,1.59 1.164,1.058 1.748,2.416 1.748,4.072 0,1.522 -0.584,2.863 -1.748,4.023 C 3.177,-0.581 1.73,0 0,0" /></g></g></g><g
       id="g44"><g
         clip-path="url(#clipPath50)"
         id="g46"><g
           transform="translate(355.5416,536.36)"
           id="g52"><path
             id="path54"
             style="fill:#4dd5bd;fill-opacity:1;fill-rule:nonzero;stroke:none"
             d="m 0,0 c -0.898,0.671 -1.963,0.992 -3.053,0.992 -1.858,0 -3.788,-0.933 -5.077,-2.652 l -9.038,-12.091 c -0.349,-0.465 -0.631,-0.938 -0.86,-1.416 -1.156,-2.527 -0.63,-5.461 1.439,-7.014 0.024,-0.016 0.049,-0.031 0.073,-0.048 0.884,-0.64 1.927,-0.946 2.991,-0.946 1.862,0 3.793,0.935 5.083,2.659 L 0.702,-8.28 C 2.748,-5.543 2.432,-1.818 0,0" /></g><g
           transform="translate(372.3653,548.5012)"
           id="g56"><path
             id="path58"
             style="fill:#161f64;fill-opacity:1;fill-rule:nonzero;stroke:none"
             d="m 0,0 19.488,25.569 c 0.863,1.125 1.296,2.317 1.296,3.575 0,1.325 -0.548,2.584 -1.646,3.775 -1.097,1.192 -2.413,1.789 -3.943,1.789 -1.863,0 -3.493,-0.962 -4.891,-2.882 L -6.887,9.112 -24.429,32.323 c -1.333,1.722 -2.963,2.583 -4.891,2.583 -1.465,0 -2.845,-0.58 -4.143,-1.739 -1.298,-1.158 -1.946,-2.599 -1.946,-4.32 0,-1.326 0.432,-2.518 1.298,-3.577 l 19.223,-25.436 -4.837,-6.52 c 2.045,-0.032 3.97,-0.675 5.577,-1.875 1.555,-1.163 2.696,-2.797 3.316,-4.658 l 2.877,3.881 17.761,-23.5 c 1.33,-1.723 2.96,-2.581 4.891,-2.581 1.33,0 2.66,0.529 3.992,1.589 1.331,1.057 1.997,2.516 1.997,4.37 0,1.39 -0.4,2.615 -1.198,3.675 z" /></g></g></g><g
       id="g60"><g
         clip-path="url(#clipPath66)"
         id="g62"><g
           transform="translate(429.8204,541.2465)"
           id="g68"><path
             id="path70"
             style="fill:#4dd5bd;fill-opacity:1;fill-rule:nonzero;stroke:none"
             d="m 0,0 c -3.569,0 -6.488,-2.787 -6.498,-6.197 v -15.095 c 0,-0.582 0.068,-1.129 0.189,-1.65 0.69,-2.716 3.254,-4.751 6.3,-4.755 0.035,0 0.067,0.003 0.102,0.004 3.531,0.049 6.405,2.821 6.405,6.206 V -6.212 C 6.498,-2.795 3.574,0 0,0" /></g><g
           transform="translate(456.2979,581.3503)"
           id="g72"><path
             id="path74"
             style="fill:#161f64;fill-opacity:1;fill-rule:nonzero;stroke:none"
             d="m 0,0 c -1.165,1.059 -2.613,1.589 -4.341,1.589 h -44.317 c -1.731,0 -3.179,-0.513 -4.343,-1.539 -1.164,-1.028 -1.746,-2.401 -1.746,-4.123 0,-1.723 0.582,-3.112 1.746,-4.171 1.164,-1.06 2.612,-1.589 4.343,-1.589 h 15.67 v -27.91 c 1.825,1.318 4.073,2.109 6.51,2.109 2.419,0 4.65,-0.777 6.466,-2.073 v 27.874 h 15.671 c 1.728,0 3.176,0.512 4.341,1.539 1.163,1.026 1.746,2.4 1.746,4.123 C 1.746,-2.451 1.163,-1.06 0,0" /></g></g></g><g
       id="g76"><g
         clip-path="url(#clipPath82)"
         id="g78"><g
           transform="translate(552.5688,544.9982)"
           id="g84"><path
             id="path86"
             style="fill:#4dd5bd;fill-opacity:1;fill-rule:nonzero;stroke:none"
             d="m 0,0 c 0,3.385 -2.741,6.129 -6.124,6.129 -3.381,0 -6.122,-2.744 -6.122,-6.129 0,-3.385 2.741,-6.129 6.122,-6.129 C -2.741,-6.129 0,-3.385 0,0" /></g><g
           transform="translate(576.5099,549.2878)"
           id="g88"><path
             id="path90"
             style="fill:#161f64;fill-opacity:1;fill-rule:nonzero;stroke:none"
             d="m 0,0 c -1.133,1.157 -2.563,1.738 -4.291,1.738 h -16.371 c -0.231,0 -0.456,-0.011 -0.677,-0.031 1.176,-1.707 1.867,-3.772 1.867,-5.997 0,-2.169 -0.656,-4.185 -1.778,-5.866 0.193,-0.016 0.389,-0.026 0.588,-0.026 h 9.383 v -12.859 c -1.38,-0.502 -3.032,-0.921 -4.99,-1.245 -2.395,-0.397 -4.592,-0.597 -6.588,-0.597 -4.327,0 -8.268,1.076 -11.828,3.229 -3.561,2.151 -6.388,5.049 -8.484,8.692 -2.096,3.641 -3.144,7.613 -3.144,11.92 0,4.369 1.048,8.358 3.144,11.969 2.096,3.608 4.923,6.488 8.484,8.641 3.56,2.151 7.501,3.228 11.828,3.228 2.062,0 4.025,-0.198 5.889,-0.596 1.862,-0.397 3.627,-0.96 5.29,-1.688 0.531,-0.265 1.081,-0.465 1.646,-0.596 0.565,-0.133 1.114,-0.198 1.648,-0.198 1.662,0 3.027,0.628 4.093,1.886 1.062,1.257 1.596,2.683 1.596,4.271 0,0.928 -0.25,1.838 -0.748,2.732 -0.5,0.894 -1.248,1.606 -2.246,2.136 -2.463,1.324 -5.158,2.317 -8.086,2.98 -2.929,0.661 -5.955,0.993 -9.082,0.993 -5.057,0 -9.782,-0.928 -14.173,-2.782 -4.392,-1.854 -8.252,-4.419 -11.578,-7.698 -3.329,-3.277 -5.939,-7.069 -7.836,-11.373 -1.896,-4.305 -2.844,-8.939 -2.844,-13.905 0,-4.967 0.948,-9.603 2.844,-13.908 1.897,-4.305 4.507,-8.095 7.836,-11.372 3.326,-3.279 7.186,-5.846 11.578,-7.699 4.391,-1.852 9.116,-2.781 14.173,-2.781 3.993,0 7.801,0.547 11.428,1.639 3.627,1.092 6.97,2.566 10.031,4.42 0.798,0.529 1.513,1.225 2.146,2.086 0.632,0.86 0.948,1.953 0.948,3.279 V -4.321 C 1.696,-2.599 1.13,-1.16 0,0" /></g></g></g><g
       id="g92"><g
         clip-path="url(#clipPath98)"
         id="g94"><g
           transform="translate(629.9432,583.0163)"
           id="g100"><path
             id="path102"
             style="fill:#4dd5bd;fill-opacity:1;fill-rule:nonzero;stroke:none"
             d="m 0,0 h -15.095 c -0.583,0 -1.131,-0.059 -1.651,-0.166 -2.715,-0.608 -4.75,-2.866 -4.756,-5.546 0.002,-0.031 0.005,-0.059 0.006,-0.09 0.048,-3.109 2.821,-5.639 6.206,-5.639 h 15.275 c 3.416,0 6.212,2.573 6.212,5.721 C 6.197,-2.578 3.41,-0.008 0,0" /></g><g
           transform="translate(629.7012,524.8955)"
           id="g104"><path
             id="path106"
             style="fill:#161f64;fill-opacity:1;fill-rule:nonzero;stroke:none"
             d="m 0,0 h -27.049 v 18.377 h 22.558 c 1.73,0 3.176,0.512 4.341,1.539 1.164,1.026 1.747,2.367 1.747,4.023 0,1.72 -0.583,3.129 -1.747,4.221 -1.165,1.092 -2.611,1.639 -4.341,1.639 h -22.558 v 16.886 h 3.178 c -1.128,1.573 -1.809,3.456 -1.85,5.477 -0.004,0.064 -0.006,0.129 -0.007,0.195 v 0.03 0.029 c 0.004,2.096 0.67,4.059 1.827,5.692 h -9.536 c -1.731,0 -3.179,-0.579 -4.342,-1.738 -1.165,-1.16 -1.747,-2.599 -1.747,-4.321 V -5.364 c 0,-1.723 0.582,-3.162 1.747,-4.321 1.163,-1.16 2.611,-1.738 4.342,-1.738 H 0 c 1.73,0 3.177,0.53 4.341,1.59 1.164,1.058 1.748,2.416 1.748,4.072 0,1.522 -0.584,2.863 -1.748,4.023 C 3.177,-0.581 1.73,0 0,0" /></g></g></g><g
       id="g108"><g
         clip-path="url(#clipPath114)"
         id="g110"><g
           transform="translate(653.3795,541.3365)"
           id="g116"><path
             id="path118"
             style="fill:#4dd5bd;fill-opacity:1;fill-rule:nonzero;stroke:none"
             d="m 0,0 c -3.046,0 -5.539,-2.787 -5.547,-6.197 v -15.095 c 0,-0.582 0.058,-1.129 0.16,-1.65 0.591,-2.716 2.779,-4.751 5.379,-4.756 0.03,0.001 0.058,0.004 0.088,0.005 3.014,0.049 5.467,2.821 5.467,6.206 V -6.212 C 5.547,-2.795 3.05,0 0,0" /></g><g
           transform="translate(704.8331,581.4212)"
           id="g120"><path
             id="path122"
             style="fill:#161f64;fill-opacity:1;fill-rule:nonzero;stroke:none"
             d="M 0,0 C -0.998,1.059 -2.296,1.589 -3.893,1.589 -5.557,1.589 -6.887,1.059 -7.885,0 -8.883,-1.06 -9.382,-2.383 -9.382,-3.973 v -42.743 l -36.332,46.119 c -0.466,0.729 -1.197,1.275 -2.196,1.639 -0.998,0.364 -1.964,0.547 -2.894,0.547 -1.731,0 -3.179,-0.58 -4.343,-1.739 -1.164,-1.159 -1.746,-2.599 -1.746,-4.32 v -32.872 c 1.568,1.088 3.434,1.727 5.44,1.727 2.047,0 3.952,-0.662 5.54,-1.791 v 17.44 l 36.631,-46.287 c 0.464,-0.531 1.147,-0.944 2.046,-1.243 0.897,-0.297 1.779,-0.447 2.645,-0.447 1.73,0 3.177,0.58 4.341,1.738 1.164,1.159 1.747,2.6 1.747,4.323 V -3.973 C 1.497,-2.383 0.998,-1.06 0,0" /></g></g></g><g
       id="g124"><g
         clip-path="url(#clipPath130)"
         id="g126"><g
           transform="translate(759.0303,583.0163)"
           id="g132"><path
             id="path134"
             style="fill:#4dd5bd;fill-opacity:1;fill-rule:nonzero;stroke:none"
             d="m 0,0 h -15.096 c -0.582,0 -1.13,-0.059 -1.65,-0.166 -2.715,-0.608 -4.75,-2.866 -4.756,-5.546 0.002,-0.031 0.005,-0.059 0.006,-0.09 0.048,-3.109 2.821,-5.639 6.206,-5.639 h 15.275 c 3.416,0 6.212,2.573 6.212,5.721 C 6.197,-2.578 3.41,-0.008 0,0" /></g><g
           transform="translate(758.7882,524.8955)"
           id="g136"><path
             id="path138"
             style="fill:#161f64;fill-opacity:1;fill-rule:nonzero;stroke:none"
             d="m 0,0 h -27.049 v 18.377 h 22.558 c 1.73,0 3.176,0.512 4.341,1.539 1.164,1.026 1.747,2.367 1.747,4.023 0,1.72 -0.583,3.129 -1.747,4.221 -1.165,1.092 -2.611,1.639 -4.341,1.639 h -22.558 v 16.886 h 3.178 c -1.128,1.573 -1.809,3.456 -1.85,5.477 -0.004,0.064 -0.006,0.129 -0.007,0.195 v 0.03 0.029 c 0.004,2.096 0.67,4.059 1.827,5.692 h -9.536 c -1.731,0 -3.179,-0.579 -4.342,-1.738 -1.165,-1.16 -1.747,-2.599 -1.747,-4.321 V -5.364 c 0,-1.723 0.582,-3.162 1.747,-4.321 1.163,-1.16 2.611,-1.738 4.342,-1.738 H 0 c 1.73,0 3.177,0.53 4.341,1.59 1.164,1.058 1.748,2.416 1.748,4.072 0,1.522 -0.584,2.863 -1.748,4.023 C 3.177,-0.581 1.73,0 0,0" /></g></g></g><g
       id="g140"><g
         clip-path="url(#clipPath146)"
         id="g142"><g
           transform="translate(782.539,541.239)"
           id="g148"><path
             id="path150"
             style="fill:#4dd5bd;fill-opacity:1;fill-rule:nonzero;stroke:none"
             d="m 0,0 c -3.412,0 -6.202,-2.787 -6.212,-6.197 v -15.095 c 0,-0.582 0.065,-1.129 0.181,-1.65 0.659,-2.716 3.112,-4.751 6.021,-4.755 0.034,0 0.065,0.003 0.099,0.004 3.375,0.049 6.123,2.821 6.123,6.206 V -6.212 C 6.212,-2.795 3.416,0 0,0" /></g><g
           transform="translate(833.7564,519.5507)"
           id="g152"><path
             id="path154"
             style="fill:#161f64;fill-opacity:1;fill-rule:nonzero;stroke:none"
             d="m 0,0 c -0.366,1.622 -1.282,2.863 -2.745,3.724 -0.866,0.463 -1.446,1.126 -1.746,1.988 -0.3,0.859 -0.5,1.919 -0.6,3.177 -0.1,1.259 -0.283,2.716 -0.548,4.371 -0.135,1.788 -0.55,3.46 -1.248,5.017 -0.699,1.554 -1.665,3.013 -2.895,4.37 -0.787,0.867 -1.718,1.651 -2.761,2.371 1.42,0.914 2.745,2.017 3.959,3.341 1.762,1.92 3.16,4.072 4.193,6.456 1.03,2.384 1.546,4.834 1.546,7.351 0,4.171 -0.932,7.863 -2.794,11.075 -1.864,3.211 -4.309,5.727 -7.336,7.549 -3.029,1.82 -6.273,2.731 -9.732,2.731 h -28.746 c -1.732,0 -3.178,-0.58 -4.342,-1.737 -1.165,-1.16 -1.747,-2.6 -1.747,-4.321 V 24.062 c 1.774,1.31 3.958,2.095 6.325,2.095 4.533,0 8.406,-2.843 9.953,-6.838 h 14.863 c 1.53,0 2.86,-0.182 3.993,-0.545 1.131,-0.366 2.062,-0.895 2.794,-1.59 0.732,-0.695 1.298,-1.524 1.698,-2.483 0.399,-0.961 0.599,-2.004 0.599,-3.129 0,-3.444 0.349,-6.258 1.048,-8.443 0.698,-2.186 1.612,-3.924 2.744,-5.215 1.132,-1.291 2.262,-2.269 3.393,-2.931 0.732,-0.397 1.664,-0.711 2.796,-0.943 1.131,-0.231 2.261,-0.231 3.393,0 1.132,0.232 2.062,0.777 2.795,1.639 C -0.018,-3.064 0.365,-1.623 0,0 m -16.919,35.66 c -0.731,-1.888 -1.663,-3.377 -2.793,-4.47 -1.133,-1.094 -2.296,-1.639 -3.494,-1.639 h -21.859 v 22.548 h 21.859 c 1.796,0 3.476,-0.978 5.04,-2.93 1.562,-1.954 2.345,-4.388 2.345,-7.302 0,-2.251 -0.366,-4.321 -1.098,-6.207" /></g></g></g><g
       id="g156"><g
         clip-path="url(#clipPath162)"
         id="g158"><g
           transform="translate(903.8333,522.2213)"
           id="g164"><path
             id="path166"
             style="fill:#4dd5bd;fill-opacity:1;fill-rule:nonzero;stroke:none"
             d="m 0,0 -5.975,13.744 c -1.013,2.329 -3.251,3.746 -5.537,3.746 -0.73,0 -1.465,-0.145 -2.167,-0.45 -2.898,-1.26 -4.177,-4.798 -2.851,-7.868 l 5.905,-13.584 c 0.229,-0.522 0.497,-0.992 0.799,-1.417 1.164,-1.579 2.974,-2.501 4.818,-2.501 0.726,0 1.457,0.143 2.155,0.445 0.029,0.012 0.054,0.027 0.082,0.041 C 0.076,-6.555 1.325,-3.046 0,0" /></g><g
           transform="translate(888.3723,543.3595)"
           id="g168"><path
             id="path170"
             style="fill:#161f64;fill-opacity:1;fill-rule:nonzero;stroke:none"
             d="m 0,0 c 1.252,0.544 2.581,0.82 3.95,0.82 0.761,0 1.511,-0.087 2.237,-0.249 L -9.165,36.967 c -0.467,1.257 -1.215,2.235 -2.247,2.93 -1.031,0.696 -2.145,1.043 -3.343,1.043 -1.266,0.132 -2.446,-0.166 -3.544,-0.894 -1.097,-0.729 -1.913,-1.756 -2.445,-3.079 l -24.853,-59.4 c -0.2,-0.663 -0.3,-1.291 -0.3,-1.887 0,-1.458 0.432,-2.683 1.298,-3.675 0.864,-0.994 2.196,-1.491 3.993,-1.491 1.13,0 2.178,0.348 3.143,1.044 0.965,0.695 1.68,1.671 2.146,2.93 l 5.179,12.118 H -5.301 C -7.362,-8.141 -5.045,-2.194 0,0 M -15.325,21.277 -5.3,-1.971 h -19.958 z" /></g></g></g><g
       id="g172"><g
         clip-path="url(#clipPath178)"
         id="g174"><g
           transform="translate(929.9314,541.2401)"
           id="g180"><path
             id="path182"
             style="fill:#4dd5bd;fill-opacity:1;fill-rule:nonzero;stroke:none"
             d="m 0,0 c -3.569,0 -6.488,-2.787 -6.498,-6.197 v -15.095 c 0,-0.582 0.068,-1.129 0.189,-1.65 0.69,-2.716 3.254,-4.751 6.3,-4.755 0.035,0 0.067,0.003 0.102,0.004 3.531,0.049 6.405,2.821 6.405,6.206 V -6.212 C 6.498,-2.795 3.574,0 0,0" /></g><g
           transform="translate(956.4089,581.3439)"
           id="g184"><path
             id="path186"
             style="fill:#161f64;fill-opacity:1;fill-rule:nonzero;stroke:none"
             d="m 0,0 c -1.165,1.059 -2.613,1.589 -4.341,1.589 h -44.317 c -1.731,0 -3.179,-0.513 -4.343,-1.539 -1.164,-1.028 -1.746,-2.401 -1.746,-4.123 0,-1.723 0.582,-3.112 1.746,-4.171 1.164,-1.06 2.612,-1.589 4.343,-1.589 h 15.67 v -27.91 c 1.825,1.318 4.073,2.109 6.51,2.109 2.419,0 4.65,-0.777 6.466,-2.073 v 27.874 h 15.671 c 1.728,0 3.176,0.512 4.341,1.539 1.163,1.026 1.746,2.4 1.746,4.123 C 1.746,-2.451 1.163,-1.06 0,0" /></g></g></g><g
       id="g188"><g
         clip-path="url(#clipPath194)"
         id="g190"><g
           transform="translate(975.2015,583.8902)"
           id="g196"><path
             id="path198"
             style="fill:#4dd5bd;fill-opacity:1;fill-rule:nonzero;stroke:none"
             d="m 0,0 c -3.412,0 -6.202,-2.787 -6.212,-6.197 v -15.097 c 0,-0.58 0.065,-1.128 0.181,-1.648 0.659,-2.716 3.112,-4.751 6.022,-4.755 0.033,0 0.064,0.003 0.098,0.004 3.375,0.049 6.123,2.821 6.123,6.206 V -6.212 C 6.212,-2.795 3.416,0 0,0" /></g><g
           transform="translate(975.439,551.7296)"
           id="g200"><path
             id="path202"
             style="fill:#161f64;fill-opacity:1;fill-rule:nonzero;stroke:none"
             d="m 0,0 c -0.066,-0.003 -0.131,-0.005 -0.2,-0.005 l -0.027,-0.002 h -0.027 c -2.301,0.004 -4.451,0.744 -6.214,2.015 v -33.366 c 0,-1.723 0.566,-3.162 1.697,-4.321 1.13,-1.16 2.628,-1.738 4.491,-1.738 1.664,0 3.128,0.578 4.393,1.738 1.263,1.159 1.896,2.598 1.896,4.321 V 2.038 C 4.306,0.798 2.235,0.043 0,0" /></g></g></g><g
       id="g204"><g
         clip-path="url(#clipPath210)"
         id="g206"><g
           transform="translate(1048.0802,572.931)"
           id="g212"><path
             id="path214"
             style="fill:#4dd5bd;fill-opacity:1;fill-rule:nonzero;stroke:none"
             d="m 0,0 c -3.457,0 -6.26,-2.806 -6.26,-6.267 0,-3.461 2.803,-6.267 6.26,-6.267 3.458,0 6.26,2.806 6.26,6.267 C 6.26,-2.806 3.458,0 0,0" /></g><g
           transform="translate(1057.5416,561.6105)"
           id="g216"><path
             id="path218"
             style="fill:#161f64;fill-opacity:1;fill-rule:nonzero;stroke:none"
             d="m 0,0 c -1.81,-3.379 -5.37,-5.682 -9.462,-5.682 -0.821,0 -1.618,0.101 -2.386,0.277 0.57,-2.238 0.867,-4.604 0.867,-7.105 0,-4.437 -0.898,-8.459 -2.695,-12.068 -1.796,-3.61 -4.259,-6.473 -7.387,-8.592 -3.128,-2.12 -6.754,-3.179 -10.879,-3.179 -4.127,0 -7.753,1.059 -10.88,3.179 -3.128,2.119 -5.573,4.982 -7.335,8.592 -1.765,3.609 -2.645,7.631 -2.645,12.068 0,4.504 0.88,8.544 2.645,12.12 1.762,3.575 4.207,6.422 7.335,8.542 3.127,2.119 6.753,3.179 10.88,3.179 4.125,0 7.751,-1.06 10.879,-3.179 0.385,-0.261 0.758,-0.532 1.121,-0.814 0.967,4.444 4.69,7.867 9.284,8.38 -2.297,1.907 -4.847,3.496 -7.659,4.751 -4.16,1.854 -8.701,2.781 -13.625,2.781 -4.925,0 -9.449,-0.927 -13.574,-2.781 -4.127,-1.855 -7.704,-4.42 -10.73,-7.699 -3.029,-3.277 -5.374,-7.069 -7.037,-11.372 -1.665,-4.307 -2.495,-8.94 -2.495,-13.908 0,-4.965 0.83,-9.602 2.495,-13.905 1.663,-4.305 4.008,-8.096 7.037,-11.373 3.026,-3.279 6.603,-5.846 10.73,-7.698 4.125,-1.853 8.649,-2.782 13.574,-2.782 4.924,0 9.465,0.929 13.625,2.782 4.157,1.852 7.75,4.419 10.779,7.698 3.028,3.277 5.373,7.068 7.037,11.373 1.662,4.303 2.495,8.94 2.495,13.905 C 1.994,-8.074 1.326,-3.907 0,0" /></g></g></g><g
       id="g220"><g
         clip-path="url(#clipPath226)"
         id="g222"><g
           transform="translate(1074.4796,541.3301)"
           id="g228"><path
             id="path230"
             style="fill:#4dd5bd;fill-opacity:1;fill-rule:nonzero;stroke:none"
             d="m 0,0 c -3.046,0 -5.539,-2.787 -5.547,-6.197 v -15.095 c 0,-0.582 0.058,-1.129 0.161,-1.65 0.59,-2.716 2.778,-4.751 5.378,-4.756 0.03,0.001 0.058,0.004 0.088,0.005 3.014,0.049 5.467,2.821 5.467,6.206 V -6.212 C 5.547,-2.795 3.05,0 0,0" /></g><g
           transform="translate(1125.9332,581.4148)"
           id="g232"><path
             id="path234"
             style="fill:#161f64;fill-opacity:1;fill-rule:nonzero;stroke:none"
             d="M 0,0 C -0.998,1.059 -2.296,1.589 -3.893,1.589 -5.557,1.589 -6.887,1.059 -7.885,0 -8.883,-1.06 -9.382,-2.383 -9.382,-3.973 v -42.743 l -36.332,46.119 c -0.466,0.729 -1.197,1.275 -2.196,1.639 -0.998,0.364 -1.964,0.547 -2.894,0.547 -1.731,0 -3.179,-0.58 -4.343,-1.739 -1.164,-1.159 -1.746,-2.599 -1.746,-4.32 v -32.872 c 1.568,1.088 3.434,1.727 5.44,1.727 2.047,0 3.952,-0.662 5.54,-1.791 v 17.44 l 36.631,-46.287 c 0.464,-0.531 1.147,-0.944 2.046,-1.243 0.897,-0.297 1.779,-0.447 2.645,-0.447 1.73,0 3.177,0.58 4.341,1.738 1.164,1.159 1.748,2.6 1.748,4.323 V -3.973 C 1.498,-2.383 0.998,-1.06 0,0" /></g></g></g><g
       id="g236"><g
         clip-path="url(#clipPath242)"
         id="g238"><g
           transform="translate(1238.171,527.2388)"
           id="g244"><path
             id="path246"
             style="fill:#4dd5bd;fill-opacity:1;fill-rule:nonzero;stroke:none"
             d="m 0,0 c -3.381,0 -6.124,-2.744 -6.124,-6.129 0,-3.386 2.743,-6.129 6.124,-6.129 3.381,0 6.122,2.743 6.122,6.129 C 6.122,-2.744 3.381,0 0,0" /></g><g
           transform="translate(1227.5785,521.1094)"
           id="g248"><path
             id="path250"
             style="fill:#161f64;fill-opacity:1;fill-rule:nonzero;stroke:none"
             d="M 0,0 C 0,1.203 0.211,2.354 0.581,3.433 -0.613,3.285 -1.808,3.206 -3.002,3.206 c -3.261,0 -6.288,0.479 -9.084,1.44 -2.793,0.959 -5.223,2.434 -7.285,4.42 -2.063,1.987 -3.678,4.47 -4.841,7.45 -1.165,2.98 -1.747,6.49 -1.747,10.529 0,3.443 0.514,6.588 1.548,9.437 1.03,2.847 2.545,5.314 4.541,7.4 1.995,2.086 4.407,3.691 7.236,4.817 2.828,1.126 6.039,1.689 9.632,1.689 1.929,0 3.776,-0.198 5.539,-0.595 1.762,-0.399 3.444,-0.962 5.041,-1.69 1.398,-0.663 2.778,-0.927 4.142,-0.794 1.363,0.131 2.479,0.794 3.344,1.987 1.263,1.523 1.746,3.211 1.447,5.065 -0.299,1.854 -1.314,3.211 -3.044,4.072 -2.463,1.258 -5.091,2.219 -7.885,2.881 -2.795,0.661 -5.656,0.993 -8.584,0.993 -5.191,0 -9.982,-0.879 -14.373,-2.631 -4.393,-1.756 -8.202,-4.207 -11.429,-7.352 -3.227,-3.146 -5.723,-6.87 -7.485,-11.174 -1.765,-4.305 -2.645,-9.006 -2.645,-14.105 0,-5.895 0.964,-11.074 2.895,-15.545 1.928,-4.47 4.573,-8.194 7.934,-11.175 3.359,-2.98 7.187,-5.231 11.478,-6.754 4.293,-1.523 8.834,-2.285 13.625,-2.285 1.929,0 3.826,0.15 5.689,0.447 0.355,0.057 0.709,0.123 1.064,0.191 C 1.46,-6.132 0,-3.235 0,0" /></g></g></g><g
       id="g252"><g
         clip-path="url(#clipPath258)"
         id="g254"><g
           transform="translate(1263.4689,541.7015)"
           id="g260"><path
             id="path262"
             style="fill:#4dd5bd;fill-opacity:1;fill-rule:nonzero;stroke:none"
             d="m 0,0 c -3.412,0 -6.202,-2.787 -6.212,-6.197 v -15.095 c 0,-0.582 0.065,-1.129 0.181,-1.65 0.659,-2.716 3.112,-4.751 6.022,-4.755 0.033,0 0.064,0.003 0.098,0.004 3.375,0.049 6.123,2.821 6.123,6.206 V -6.212 C 6.212,-2.795 3.416,0 0,0" /></g><g
           transform="translate(1312.3403,581.7964)"
           id="g264"><path
             id="path266"
             style="fill:#161f64;fill-opacity:1;fill-rule:nonzero;stroke:none"
             d="M 0,0 C -1.132,1.159 -2.629,1.739 -4.491,1.739 -6.155,1.739 -7.62,1.159 -8.883,0 -10.148,-1.159 -10.78,-2.599 -10.78,-4.321 v -22.845 h -31.84 v 22.845 c 0,1.722 -0.615,3.162 -1.847,4.321 -1.231,1.159 -2.644,1.739 -4.241,1.739 -1.864,0 -3.394,-0.58 -4.591,-1.739 -1.198,-1.159 -1.798,-2.599 -1.798,-4.321 v -33.327 c 1.757,1.267 3.903,2.022 6.225,2.022 2.855,0 5.446,-1.132 7.365,-2.964 h 30.727 v -23.144 c 0,-1.723 0.615,-3.162 1.847,-4.321 1.23,-1.158 2.644,-1.738 4.242,-1.738 1.929,0 3.476,0.58 4.641,1.738 1.164,1.159 1.747,2.598 1.747,4.321 V -4.321 C 1.697,-2.599 1.13,-1.159 0,0" /></g></g></g><g
       id="g268"><g
         clip-path="url(#clipPath274)"
         id="g270"><g
           transform="translate(1367.5496,582.6844)"
           id="g276"><path
             id="path278"
             style="fill:#4dd5bd;fill-opacity:1;fill-rule:nonzero;stroke:none"
             d="m 0,0 h -15.095 c -0.582,0 -1.131,-0.059 -1.651,-0.166 -2.715,-0.608 -4.75,-2.865 -4.755,-5.546 0.001,-0.031 0.004,-0.059 0.005,-0.09 0.048,-3.109 2.821,-5.639 6.206,-5.639 h 15.275 c 3.416,0 6.212,2.573 6.212,5.721 C 6.197,-2.578 3.41,-0.008 0,0" /></g><g
           transform="translate(1367.3075,524.5637)"
           id="g280"><path
             id="path282"
             style="fill:#161f64;fill-opacity:1;fill-rule:nonzero;stroke:none"
             d="m 0,0 h -27.049 v 18.377 h 22.558 c 1.73,0 3.176,0.512 4.341,1.539 1.164,1.026 1.747,2.367 1.747,4.023 0,1.72 -0.583,3.129 -1.747,4.221 -1.165,1.092 -2.611,1.639 -4.341,1.639 h -22.558 v 16.886 h 3.178 c -1.128,1.573 -1.808,3.456 -1.85,5.477 -0.004,0.064 -0.006,0.129 -0.007,0.195 v 0.029 0.03 c 0.004,2.096 0.67,4.059 1.827,5.692 h -9.536 c -1.731,0 -3.179,-0.579 -4.342,-1.738 -1.165,-1.16 -1.747,-2.599 -1.747,-4.321 V -5.364 c 0,-1.723 0.582,-3.162 1.747,-4.321 1.163,-1.16 2.611,-1.738 4.342,-1.738 H 0 c 1.73,0 3.177,0.53 4.341,1.59 1.164,1.058 1.748,2.416 1.748,4.072 0,1.522 -0.584,2.863 -1.748,4.023 C 3.177,-0.581 1.73,0 0,0" /></g></g></g><g
       id="g284"><g
         clip-path="url(#clipPath290)"
         id="g286"><g
           transform="translate(1391.2052,540.7958)"
           id="g292"><path
             id="path294"
             style="fill:#4dd5bd;fill-opacity:1;fill-rule:nonzero;stroke:none"
             d="m 0,0 c -3.177,0 -5.775,-2.787 -5.784,-6.197 v -15.095 c 0,-0.582 0.06,-1.129 0.168,-1.65 0.614,-2.716 2.898,-4.751 5.606,-4.755 0.033,0 0.061,0.003 0.094,0.004 3.142,0.049 5.7,2.821 5.7,6.206 V -6.212 C 5.784,-2.795 3.181,0 0,0" /></g><g
           transform="translate(1450.376,581.04)"
           id="g296"><path
             id="path298"
             style="fill:#161f64;fill-opacity:1;fill-rule:nonzero;stroke:none"
             d="m 0,0 c -1.265,1.125 -2.695,1.688 -4.291,1.688 -1.998,0 -3.629,-0.894 -4.891,-2.682 L -31.57,-34.277 -53.299,-0.994 c -0.534,0.795 -1.316,1.441 -2.346,1.938 -1.033,0.495 -2.013,0.744 -2.945,0.744 -1.731,0 -3.211,-0.596 -4.441,-1.788 -1.232,-1.191 -1.848,-2.616 -1.848,-4.271 V -37.59 c 1.634,1.146 3.598,1.815 5.708,1.815 2.139,0 4.126,-0.688 5.772,-1.86 v 16.665 l 16.468,-25.914 c 0.6,-0.729 1.348,-1.358 2.246,-1.888 0.898,-0.53 1.78,-0.761 2.645,-0.695 0.931,-0.066 1.846,0.165 2.746,0.695 0.898,0.53 1.646,1.159 2.245,1.888 l 16.469,24.985 v -39.983 c 0,-1.723 0.582,-3.164 1.746,-4.323 1.164,-1.158 2.678,-1.738 4.543,-1.738 1.862,0 3.358,0.58 4.491,1.738 1.13,1.159 1.696,2.6 1.696,4.323 V -4.371 C 1.896,-2.583 1.263,-1.126 0,0" /></g></g></g><g
       id="g300"><g
         clip-path="url(#clipPath306)"
         id="g302"><g
           transform="translate(1472.587,582.7014)"
           id="g308"><path
             id="path310"
             style="fill:#4dd5bd;fill-opacity:1;fill-rule:nonzero;stroke:none"
             d="m 0,0 c -3.412,0 -6.202,-2.787 -6.212,-6.197 v -15.097 c 0,-0.58 0.065,-1.128 0.181,-1.648 0.659,-2.716 3.111,-4.751 6.021,-4.755 0.034,0 0.065,0.003 0.099,0.004 3.375,0.049 6.122,2.821 6.122,6.206 V -6.212 C 6.211,-2.795 3.416,0 0,0" /></g><g
           transform="translate(1472.8245,550.5408)"
           id="g312"><path
             id="path314"
             style="fill:#161f64;fill-opacity:1;fill-rule:nonzero;stroke:none"
             d="m 0,0 c -0.066,-0.003 -0.131,-0.005 -0.2,-0.005 l -0.027,-0.002 h -0.027 c -2.301,0.004 -4.451,0.744 -6.214,2.015 v -33.366 c 0,-1.723 0.566,-3.162 1.697,-4.321 1.13,-1.16 2.628,-1.738 4.491,-1.738 1.664,0 3.128,0.578 4.393,1.738 1.263,1.159 1.896,2.598 1.896,4.321 V 2.038 C 4.306,0.798 2.235,0.043 0,0" /></g></g></g><g
       id="g316"><g
         clip-path="url(#clipPath322)"
         id="g318"><g
           transform="translate(1497.8269,531.0233)"
           id="g324"><path
             id="path326"
             style="fill:#4dd5bd;fill-opacity:1;fill-rule:nonzero;stroke:none"
             d="m 0,0 c -3.381,0 -6.124,-2.744 -6.124,-6.129 0,-3.386 2.743,-6.129 6.124,-6.129 3.381,0 6.122,2.743 6.122,6.129 C 6.122,-2.744 3.381,0 0,0" /></g><g
           transform="translate(1541.8105,541.4996)"
           id="g328"><path
             id="path330"
             style="fill:#161f64;fill-opacity:1;fill-rule:nonzero;stroke:none"
             d="M 0,0 C -0.998,2.35 -2.495,4.304 -4.491,5.86 -6.488,7.416 -9,8.692 -12.027,9.685 c -3.029,0.992 -6.537,1.852 -10.53,2.583 -3.062,0.595 -5.689,1.273 -7.886,2.035 -2.196,0.761 -3.877,1.789 -5.04,3.08 -1.165,1.291 -1.747,2.93 -1.747,4.916 0,1.655 0.499,3.112 1.497,4.37 0.998,1.259 2.478,2.251 4.441,2.98 1.963,0.73 4.376,1.094 7.237,1.094 1.73,0 3.593,-0.283 5.589,-0.845 1.997,-0.563 3.893,-1.259 5.69,-2.085 1.796,-0.829 3.226,-1.707 4.292,-2.633 0.798,-0.596 1.697,-0.894 2.695,-0.894 1.53,0 2.86,0.597 3.992,1.788 1.131,1.192 1.697,2.515 1.697,3.974 0,1.986 -0.965,3.74 -2.895,5.263 -2.329,1.988 -5.339,3.626 -9.032,4.918 -3.694,1.291 -7.703,1.937 -12.028,1.937 -4.591,0 -8.783,-0.796 -12.576,-2.385 -3.793,-1.588 -6.804,-3.908 -9.034,-6.953 -2.229,-3.046 -3.343,-6.722 -3.343,-11.025 0,-2.848 0.465,-5.414 1.398,-7.699 0.931,-2.283 2.311,-4.271 4.141,-5.959 1.83,-1.689 4.109,-3.08 6.838,-4.172 2.728,-1.093 5.889,-1.904 9.482,-2.434 3.794,-0.53 6.92,-1.276 9.383,-2.234 2.46,-0.961 4.291,-2.137 5.489,-3.526 1.197,-1.391 1.797,-3.079 1.797,-5.067 0,-1.655 -0.633,-3.128 -1.897,-4.419 -1.264,-1.291 -2.929,-2.319 -4.99,-3.08 -2.063,-0.762 -4.326,-1.143 -6.788,-1.143 -3.659,0 -6.737,0.529 -9.232,1.589 -0.006,0.003 -0.012,0.007 -0.019,0.01 0.003,-0.093 0.015,-0.182 0.015,-0.274 0,-4.4 -2.694,-8.181 -6.518,-9.781 1.046,-0.479 2.105,-0.895 3.178,-1.229 3.726,-1.157 7.917,-1.737 12.576,-1.737 4.525,0 8.734,0.829 12.627,2.483 3.892,1.654 7.037,4.039 9.432,7.151 2.396,3.113 3.594,6.821 3.594,11.126 0,3.377 -0.5,6.241 -1.498,8.592" /></g></g></g><g
       id="g332"><g
         clip-path="url(#clipPath338)"
         id="g334"><g
           transform="translate(1578.3328,540.9081)"
           id="g340"><path
             id="path342"
             style="fill:#4dd5bd;fill-opacity:1;fill-rule:nonzero;stroke:none"
             d="m 0,0 c -3.569,0 -6.488,-2.787 -6.498,-6.197 v -15.095 c 0,-0.582 0.068,-1.129 0.189,-1.65 0.69,-2.716 3.254,-4.751 6.299,-4.755 0.036,0 0.068,0.003 0.103,0.004 3.531,0.049 6.405,2.821 6.405,6.206 V -6.212 C 6.498,-2.795 3.574,0 0,0" /></g><g
           transform="translate(1604.8103,581.012)"
           id="g344"><path
             id="path346"
             style="fill:#161f64;fill-opacity:1;fill-rule:nonzero;stroke:none"
             d="m 0,0 c -1.165,1.059 -2.613,1.589 -4.341,1.589 h -44.317 c -1.731,0 -3.179,-0.513 -4.343,-1.539 -1.164,-1.028 -1.746,-2.401 -1.746,-4.123 0,-1.723 0.582,-3.112 1.746,-4.171 1.164,-1.06 2.612,-1.589 4.343,-1.589 h 15.67 v -27.91 c 1.825,1.317 4.073,2.109 6.51,2.109 2.419,0 4.65,-0.777 6.466,-2.073 v 27.874 h 15.671 c 1.728,0 3.176,0.512 4.341,1.539 1.163,1.026 1.746,2.4 1.746,4.123 C 1.746,-2.451 1.163,-1.06 0,0" /></g></g></g><g
       id="g348"><g
         clip-path="url(#clipPath354)"
         id="g350"><g
           transform="translate(1621.7001,540.9071)"
           id="g356"><path
             id="path358"
             style="fill:#4dd5bd;fill-opacity:1;fill-rule:nonzero;stroke:none"
             d="m 0,0 c -3.412,0 -6.202,-2.787 -6.212,-6.197 v -15.095 c 0,-0.582 0.065,-1.129 0.181,-1.65 0.659,-2.716 3.111,-4.751 6.021,-4.755 0.034,0 0.065,0.003 0.099,0.004 3.375,0.049 6.123,2.821 6.123,6.206 V -6.212 C 6.212,-2.795 3.416,0 0,0" /></g><g
           transform="translate(1672.9175,519.2188)"
           id="g360"><path
             id="path362"
             style="fill:#161f64;fill-opacity:1;fill-rule:nonzero;stroke:none"
             d="m 0,0 c -0.366,1.622 -1.281,2.863 -2.745,3.724 -0.866,0.463 -1.447,1.126 -1.746,1.988 -0.3,0.859 -0.5,1.919 -0.6,3.177 -0.1,1.259 -0.283,2.716 -0.548,4.371 -0.135,1.788 -0.55,3.46 -1.248,5.017 -0.699,1.554 -1.665,3.012 -2.895,4.37 -0.787,0.867 -1.718,1.651 -2.761,2.371 1.42,0.914 2.745,2.017 3.959,3.341 1.762,1.92 3.16,4.072 4.193,6.456 1.03,2.384 1.546,4.834 1.546,7.351 0,4.171 -0.932,7.863 -2.794,11.075 -1.864,3.211 -4.309,5.727 -7.336,7.549 -3.029,1.82 -6.273,2.731 -9.732,2.731 h -28.746 c -1.732,0 -3.178,-0.58 -4.342,-1.737 -1.165,-1.16 -1.747,-2.6 -1.747,-4.322 v -33.4 c 1.774,1.31 3.958,2.095 6.325,2.095 4.533,0 8.406,-2.843 9.953,-6.838 h 14.863 c 1.53,0 2.86,-0.182 3.993,-0.545 1.131,-0.366 2.062,-0.895 2.794,-1.59 0.732,-0.695 1.298,-1.524 1.698,-2.483 0.399,-0.961 0.599,-2.004 0.599,-3.129 0,-3.444 0.348,-6.258 1.048,-8.443 0.698,-2.186 1.612,-3.924 2.744,-5.215 1.131,-1.291 2.262,-2.269 3.393,-2.931 0.732,-0.397 1.664,-0.711 2.796,-0.943 1.131,-0.231 2.261,-0.231 3.393,0 1.132,0.232 2.062,0.777 2.795,1.639 C -0.018,-3.064 0.365,-1.623 0,0 m -16.919,35.66 c -0.731,-1.888 -1.663,-3.377 -2.793,-4.47 -1.133,-1.094 -2.296,-1.639 -3.494,-1.639 h -21.859 v 22.548 h 21.859 c 1.796,0 3.476,-0.978 5.04,-2.93 1.562,-1.954 2.345,-4.388 2.345,-7.302 0,-2.251 -0.366,-4.321 -1.098,-6.207" /></g></g></g><g
       id="g364"><g
         clip-path="url(#clipPath370)"
         id="g366"><g
           transform="translate(1728.7136,581.6971)"
           id="g372"><path
             id="path374"
             style="fill:#4dd5bd;fill-opacity:1;fill-rule:nonzero;stroke:none"
             d="m 0,0 c -0.971,0.667 -2.086,0.986 -3.206,0.986 -1.956,0 -3.925,-0.972 -5.158,-2.756 l -8.55,-12.441 c -0.331,-0.479 -0.591,-0.966 -0.794,-1.456 -1.024,-2.592 -0.261,-5.586 2.01,-7.152 0.027,-0.019 0.053,-0.033 0.08,-0.05 0.955,-0.635 2.044,-0.939 3.138,-0.939 1.959,0 3.931,0.974 5.161,2.766 L 1.334,-8.454 C 3.271,-5.639 2.67,-1.835 0,0" /></g><g
           transform="translate(1716.2336,553.4198)"
           id="g376"><path
             id="path378"
             style="fill:#161f64;fill-opacity:1;fill-rule:nonzero;stroke:none"
             d="m 0,0 c -1.982,0 -3.894,0.566 -5.536,1.637 -0.058,0.035 -0.115,0.071 -0.173,0.11 L -5.732,1.762 -5.755,1.778 C -7.578,3.037 -8.87,4.806 -9.564,6.796 l -2.975,-4.33 -17.586,24.153 c -1.397,1.854 -3.029,2.782 -4.891,2.782 -1.463,0 -2.894,-0.563 -4.291,-1.689 -1.398,-1.126 -2.096,-2.582 -2.096,-4.37 0,-0.663 0.132,-1.391 0.398,-2.186 0.266,-0.794 0.732,-1.623 1.398,-2.482 l 20.762,-27.453 v -25.59 c 0,-1.723 0.58,-3.162 1.746,-4.321 1.164,-1.159 2.577,-1.738 4.242,-1.738 1.53,0 2.877,0.579 4.042,1.738 1.164,1.159 1.747,2.598 1.747,4.321 v 24.214 L 0.062,0.004 C 0.042,0.004 0.022,0 0,0" /></g></g></g></g></svg>