<svg width="1358" height="808" viewBox="0 0 1358 808" fill="none" xmlns="http://www.w3.org/2000/svg">
<mask id="mask0_65_733" style="mask-type:alpha" maskUnits="userSpaceOnUse" x="0" y="0" width="1358" height="808">
<rect width="1358" height="808" rx="14" fill="#C4C4C4"/>
</mask>
<g mask="url(#mask0_65_733)">
<rect width="1358" height="808" rx="14" fill="#67D3FF"/>
<path d="M531.608 140.709C1039.5 229.616 1203.46 560.895 1438 966.738C1444.35 977.719 1433.52 991.018 1421.27 987.232L352.924 656.998C349.541 655.952 346.749 653.743 345.063 650.672C233.526 447.51 118.115 68.3268 531.608 140.709Z" fill="url(#paint0_linear_65_733)"/>
<g filter="url(#filter0_f_65_733)">
<path d="M583.325 171.462C1092.52 260.597 1119.15 470.066 1348.52 871.804C1354.53 882.342 1344.89 895.387 1332.89 892.731L405.426 687.463C401.573 686.61 398.336 684.264 396.463 680.847C285.025 477.545 170.224 99.1486 583.325 171.462Z" fill="url(#paint1_linear_65_733)"/>
</g>
<g filter="url(#filter1_f_65_733)">
<path d="M486.854 63.6867C999.506 147.365 1015.68 389.548 1232.86 847.686C1237.84 858.18 1228.33 870.211 1216.83 867.718L286.034 665.852C281.795 664.932 278.307 662.215 276.544 658.311C172.564 428.032 72.6522 -3.92175 486.854 63.6867Z" fill="url(#paint2_linear_65_733)"/>
</g>
<g filter="url(#filter2_f_65_733)">
<ellipse cx="1273.6" cy="715.08" rx="278.673" ry="272.476" fill="#5156CE"/>
</g>
<g filter="url(#filter3_f_65_733)">
<ellipse cx="47.6243" cy="191.227" rx="307.908" ry="272.924" fill="#FFEFD7"/>
</g>
</g>
<defs>
<filter id="filter0_f_65_733" x="230.937" y="101.103" width="1180.73" height="853.282" filterUnits="userSpaceOnUse" color-interpolation-filters="sRGB">
<feFlood flood-opacity="0" result="BackgroundImageFix"/>
<feBlend mode="normal" in="SourceGraphic" in2="BackgroundImageFix" result="shape"/>
<feGaussianBlur stdDeviation="30.6522" result="effect1_foregroundBlur_65_733"/>
</filter>
<filter id="filter1_f_65_733" x="58.3964" y="-70.1057" width="1302.52" height="1064.85" filterUnits="userSpaceOnUse" color-interpolation-filters="sRGB">
<feFlood flood-opacity="0" result="BackgroundImageFix"/>
<feBlend mode="normal" in="SourceGraphic" in2="BackgroundImageFix" result="shape"/>
<feGaussianBlur stdDeviation="63.3478" result="effect1_foregroundBlur_65_733"/>
</filter>
<filter id="filter2_f_65_733" x="694.924" y="142.604" width="1157.35" height="1144.95" filterUnits="userSpaceOnUse" color-interpolation-filters="sRGB">
<feFlood flood-opacity="0" result="BackgroundImageFix"/>
<feBlend mode="normal" in="SourceGraphic" in2="BackgroundImageFix" result="shape"/>
<feGaussianBlur stdDeviation="150" result="effect1_foregroundBlur_65_733"/>
</filter>
<filter id="filter3_f_65_733" x="-724.713" y="-546.128" width="1544.68" height="1474.71" filterUnits="userSpaceOnUse" color-interpolation-filters="sRGB">
<feFlood flood-opacity="0" result="BackgroundImageFix"/>
<feBlend mode="normal" in="SourceGraphic" in2="BackgroundImageFix" result="shape"/>
<feGaussianBlur stdDeviation="232.215" result="effect1_foregroundBlur_65_733"/>
</filter>
<linearGradient id="paint0_linear_65_733" x1="214.626" y1="374.005" x2="1528.44" y2="734.415" gradientUnits="userSpaceOnUse">
<stop stop-color="#86DFCC"/>
<stop offset="0.294215" stop-color="#486284"/>
</linearGradient>
<linearGradient id="paint1_linear_65_733" x1="275.106" y1="372.818" x2="1422.81" y2="687.66" gradientUnits="userSpaceOnUse">
<stop stop-color="#86DFCC"/>
<stop offset="0.294215" stop-color="#486284"/>
</linearGradient>
<linearGradient id="paint2_linear_65_733" x1="166.993" y1="307.741" x2="1314.38" y2="622.494" gradientUnits="userSpaceOnUse">
<stop stop-color="#86DFCC"/>
<stop offset="0.294215" stop-color="#486284"/>
</linearGradient>
</defs>
</svg>
