<svg width="24" height="14" viewBox="0 0 24 14" fill="none" xmlns="http://www.w3.org/2000/svg">
<path d="M23.12 5.04955L19.25 1.13955C19.157 1.04582 19.0464 0.971425 18.9246 0.920657C18.8027 0.869888 18.672 0.84375 18.54 0.84375C18.408 0.84375 18.2773 0.869888 18.1554 0.920657C18.0336 0.971425 17.923 1.04582 17.83 1.13955C17.6437 1.32691 17.5392 1.58036 17.5392 1.84455C17.5392 2.10873 17.6437 2.36219 17.83 2.54955L21.39 6.13955H1C0.734784 6.13955 0.48043 6.24491 0.292893 6.43244C0.105357 6.61998 0 6.87433 0 7.13955H0C0 7.40476 0.105357 7.65912 0.292893 7.84665C0.48043 8.03419 0.734784 8.13955 1 8.13955H21.45L17.83 11.7495C17.7363 11.8425 17.6619 11.9531 17.6111 12.075C17.5603 12.1968 17.5342 12.3275 17.5342 12.4595C17.5342 12.5916 17.5603 12.7223 17.6111 12.8441C17.6619 12.966 17.7363 13.0766 17.83 13.1695C17.923 13.2633 18.0336 13.3377 18.1554 13.3884C18.2773 13.4392 18.408 13.4653 18.54 13.4653C18.672 13.4653 18.8027 13.4392 18.9246 13.3884C19.0464 13.3377 19.157 13.2633 19.25 13.1695L23.12 9.28955C23.6818 8.72705 23.9974 7.96455 23.9974 7.16955C23.9974 6.37455 23.6818 5.61205 23.12 5.04955Z" fill="white"/>
</svg>
