<svg width="14" height="14" viewBox="0 0 14 14" fill="none" xmlns="http://www.w3.org/2000/svg">
<path fill-rule="evenodd" clip-rule="evenodd" d="M0 6.99989C0 6.80097 0.0790175 6.61021 0.21967 6.46956C0.360322 6.3289 0.551088 6.24989 0.75 6.24989H11.388L7.23 2.28989C7.15565 2.22245 7.0956 2.14077 7.0534 2.0497C7.0112 1.95863 6.98771 1.86002 6.98432 1.7597C6.98093 1.65939 6.99771 1.55941 7.03367 1.4657C7.06963 1.37199 7.12403 1.28644 7.19365 1.21414C7.26328 1.14184 7.3467 1.08425 7.43899 1.04479C7.53128 1.00532 7.63055 0.984778 7.73093 0.984381C7.8313 0.983984 7.93073 1.00374 8.02333 1.04247C8.11593 1.08121 8.19981 1.13814 8.27 1.20989L13.77 6.45989C13.8426 6.52985 13.9003 6.61373 13.9398 6.70651C13.9792 6.79929 13.9995 6.89907 13.9995 6.99989C13.9995 7.1007 13.9792 7.20048 13.9398 7.29326C13.9003 7.38604 13.8426 7.46992 13.77 7.53989L8.27 12.7899C8.19981 12.8616 8.11593 12.9186 8.02333 12.9573C7.93073 12.996 7.8313 13.0158 7.73093 13.0154C7.63055 13.015 7.53128 12.9945 7.43899 12.955C7.3467 12.9155 7.26328 12.8579 7.19365 12.7856C7.12403 12.7133 7.06963 12.6278 7.03367 12.5341C6.99771 12.4404 6.98093 12.3404 6.98432 12.2401C6.98771 12.1398 7.0112 12.0411 7.0534 11.9501C7.0956 11.859 7.15565 11.7773 7.23 11.7099L11.388 7.74989H0.75C0.551088 7.74989 0.360322 7.67087 0.21967 7.53021C0.0790175 7.38956 0 7.1988 0 6.99989Z" fill="black"/>
</svg>
