<svg width="16" height="16" viewBox="0 0 16 16" fill="none" xmlns="http://www.w3.org/2000/svg">
<path fill-rule="evenodd" clip-rule="evenodd" d="M8 16C10.1217 16 12.1566 15.1571 13.6569 13.6569C15.1571 12.1566 16 10.1217 16 8C16 5.87827 15.1571 3.84344 13.6569 2.34315C12.1566 0.842855 10.1217 0 8 0C5.87827 0 3.84344 0.842855 2.34315 2.34315C0.842855 3.84344 0 5.87827 0 8C0 10.1217 0.842855 12.1566 2.34315 13.6569C3.84344 15.1571 5.87827 16 8 16ZM7.25 11.25C7.25 11.4489 7.32902 11.6397 7.46967 11.7803C7.61032 11.921 7.80109 12 8 12C8.19891 12 8.38968 11.921 8.53033 11.7803C8.67098 11.6397 8.75 11.4489 8.75 11.25V6.66L10.7 8.76C10.8353 8.90587 11.0229 8.99203 11.2217 8.99953C11.4205 9.00704 11.6141 8.93526 11.76 8.8C11.9059 8.66474 11.992 8.47707 11.9995 8.27828C12.007 8.0795 11.9353 7.88587 11.8 7.74L8.55 4.24C8.47979 4.16427 8.3947 4.10386 8.30006 4.06254C8.20542 4.02123 8.10327 3.9999 8 3.9999C7.89673 3.9999 7.79458 4.02123 7.69994 4.06254C7.6053 4.10386 7.52021 4.16427 7.45 4.24L4.2 7.74C4.13303 7.81223 4.08093 7.89694 4.0467 7.9893C4.01246 8.08166 3.99675 8.17985 4.00047 8.27828C4.00418 8.37671 4.02725 8.47345 4.06835 8.56297C4.10944 8.65248 4.16777 8.73303 4.24 8.8C4.31223 8.86697 4.39694 8.91907 4.4893 8.9533C4.58166 8.98754 4.67985 9.00325 4.77828 8.99953C4.87671 8.99582 4.97345 8.97275 5.06297 8.93165C5.15248 8.89056 5.23303 8.83223 5.3 8.76L7.25 6.66V11.25Z" fill="white"/>
</svg>
