<svg width="14" height="13" viewBox="0 0 14 13" fill="none" xmlns="http://www.w3.org/2000/svg">
<path d="M12.25 0.125C12.7148 0.125 13.125 0.535156 13.125 1.02734V11.5C13.125 11.9922 12.7148 12.375 12.25 12.375H1.72266C1.25781 12.375 0.875 11.9922 0.875 11.5V1.02734C0.875 0.535156 1.25781 0.125 1.72266 0.125H12.25ZM4.56641 10.625V4.80078H2.76172V10.625H4.56641ZM3.66406 3.98047C4.23828 3.98047 4.70312 3.51562 4.70312 2.94141C4.70312 2.36719 4.23828 1.875 3.66406 1.875C3.0625 1.875 2.59766 2.36719 2.59766 2.94141C2.59766 3.51562 3.0625 3.98047 3.66406 3.98047ZM11.375 10.625V7.42578C11.375 5.86719 11.0195 4.63672 9.1875 4.63672C8.3125 4.63672 7.71094 5.12891 7.46484 5.59375H7.4375V4.80078H5.71484V10.625H7.51953V7.75391C7.51953 6.98828 7.65625 6.25 8.61328 6.25C9.54297 6.25 9.54297 7.125 9.54297 7.78125V10.625H11.375Z" fill="white"/>
</svg>
