<svg width="14" height="12" viewBox="0 0 14 12" fill="none" xmlns="http://www.w3.org/2000/svg">
<path d="M12.5508 3.40625C12.5508 3.54297 12.5508 3.65234 12.5508 3.78906C12.5508 7.58984 9.67969 11.9375 4.40234 11.9375C2.76172 11.9375 1.25781 11.4727 0 10.6523C0.21875 10.6797 0.4375 10.707 0.683594 10.707C2.02344 10.707 3.25391 10.2422 4.23828 9.47656C2.98047 9.44922 1.91406 8.62891 1.55859 7.48047C1.75 7.50781 1.91406 7.53516 2.10547 7.53516C2.35156 7.53516 2.625 7.48047 2.84375 7.42578C1.53125 7.15234 0.546875 6.00391 0.546875 4.60938V4.58203C0.929688 4.80078 1.39453 4.91016 1.85938 4.9375C1.06641 4.41797 0.574219 3.54297 0.574219 2.55859C0.574219 2.01172 0.710938 1.51953 0.957031 1.10938C2.37891 2.83203 4.51172 3.98047 6.89062 4.11719C6.83594 3.89844 6.80859 3.67969 6.80859 3.46094C6.80859 1.875 8.09375 0.589844 9.67969 0.589844C10.5 0.589844 11.2383 0.917969 11.7852 1.49219C12.4141 1.35547 13.043 1.10938 13.5898 0.78125C13.3711 1.46484 12.9336 2.01172 12.332 2.36719C12.9062 2.3125 13.4805 2.14844 13.9727 1.92969C13.5898 2.50391 13.0977 2.99609 12.5508 3.40625Z" fill="white"/>
</svg>
